<svg 
    xmlns="http://www.w3.org/2000/svg" 
    xmlns:xlink="http://www.w3.org/1999/xlink" 
    version="1.1" 
    id="Layer_1" 
    x="0px" 
    y="0px" 
    viewBox="0 0 512 512" 
    style="enable-background:new 0 0 512 512;" 
    xml:space="preserve">
<g>
	<path d="M437.5,74.5c-99.3-99.3-261.7-99.3-361,0C12.2,138.8,0,195.1,0,255.5s12.2,116.7,76.5,181c99.3,99.3,261.7,99.3,361,0   c64.3-64.3,76.5-120.6,76.5-181S501.8,138.8,437.5,74.5z M370.4,344.1c4.7,4.7,4.7,12.3,0,17l-27.3,27.3c-4.7,4.7-12.3,4.7-17,0   L255.5,299.8L185.9,369.4c-4.7,4.7-12.3,4.7-17,0l-27.3-27.3c-4.7-4.7-4.7-12.3,0-17l69.6-69.6l-69.6-69.6c-4.7-4.7-4.7-12.3,0-17   l27.3-27.3c4.7-4.7,12.3-4.7,17,0l69.6,69.6l69.6-69.6c4.7-4.7,12.3-4.7,17,0l27.3,27.3c4.7,4.7,4.7,12.3,0,17L299.8,255.5   L370.4,344.1z"/>
</g>
</svg>
